<?xml version="1.0" encoding="utf-8"?><!-- Generator: Adobe Illustrator 23.0.3, SVG Export Plug-In . SVG Version: 6.00 Build 0)  -->
<svg version="1.1" id="Layer_1"
    xmlns="http://www.w3.org/2000/svg"
    xmlns:xlink="http://www.w3.org/1999/xlink" x="0px" y="0px" viewBox="0 0 2000 2000" style="enable-background:new 0 0 2000 2000;" xml:space="preserve">
    <g transform="translate(0.000000,600.000000) scale(0.100000,-0.100000)">
        <path fill="#4f703c" d="M6543.11,1603.04c-1009.34-2614.55-1407.6-4423.46-1313.36-5946.58c76-1179.59,343.54-2313.57,1042.78-4399.13 		l316.18-942.46l519.87-9.12c504.67-6.08,522.91-6.08,522.91,54.72c0,33.44-60.8,355.7-139.85,720.52 		c-401.3,1933.55-507.71,2517.27-611.08,3444.52c-76,668.84-76,2462.54,0,3131.38c112.49,991.1,304.02,2058.2,601.95,3335.07 		c82.08,352.66,148.97,656.68,148.97,674.92c0,24.32-170.25,33.44-525.95,33.44h-525.95L6543.11,1603.04z"/>
        <path fill="#4f703c" d="M16399.36,1618.24c9.12-48.64,112.49-535.07,228.01-1088.38c328.34-1559.61,449.95-2264.93,535.07-3158.74 		c179.37-1900.11,21.28-3587.41-595.88-6256.68c-97.29-431.71-179.37-790.45-179.37-799.57c0-9.12,237.13-15.2,528.99-15.2h528.99 		l228.01,617.16c535.07,1438,872.53,2626.71,1036.7,3669.49c218.89,1395.44,97.29,2720.96-419.54,4517.7 		c-173.29,595.87-513.79,1662.98-723.56,2255.81l-121.61,340.5h-532.03h-532.03L16399.36,1618.24z"/>
        <path fill="#4f703c" d="M3542.46,1332.47c-662.76-63.84-1091.42-276.66-1310.32-650.6c-158.09-273.62-200.65-538.11-215.85-1404.56l-18.24-799.57 		H1593.7h-407.38v-577.63v-577.63h410.42h410.42v-2720.96v-2720.96h927.25h927.25v2720.96v2720.96h425.62h425.62v577.63v577.63 		H4287.3h-425.62v498.59c0,273.62,15.2,568.51,30.4,659.72c63.84,331.38,261.46,483.39,638.44,492.51l212.81,6.08v595.87v595.87 		l-279.7,21.28C4129.21,1368.95,3907.28,1365.91,3542.46,1332.47z"/>
        <path fill="#4f703c" d="M8610.43,1250.38c6.08-15.2,510.75-1018.46,1127.91-2231.49l1115.75-2210.21L9638.01-5647.78L8424.98-8104.24l1021.5-9.12 		c562.43-3.04,1033.66,3.04,1042.78,15.2c12.16,15.2,334.42,726.6,714.44,1583.93c383.06,854.29,702.28,1556.57,714.44,1556.57 		c9.12,0,334.42-708.36,717.48-1571.77l702.28-1574.81l1127.91-9.12c623.24-3.04,1130.95,0,1130.95,9.12 		c0,9.12-532.03,1082.3-1185.67,2386.54l-1185.67,2368.3l422.58,829.97c231.05,456.03,757,1495.77,1167.43,2313.57l747.88,1480.57 		h-1042.78h-1042.78l-629.32-1480.57c-346.58-817.81-641.48-1492.73-650.6-1504.89c-12.16-9.12-313.14,656.68-671.88,1483.61 		l-650.6,1501.85H9735.29C9112.06,1274.7,8604.35,1262.54,8610.43,1250.38z"/>
    </g>
</svg> 