<?xml version="1.0" encoding="utf-8"?> <!-- Generator: Adobe Illustrator 23.0.3, SVG Export Plug-In . SVG Version: 6.00 Build 0)  --> <svg version="1.1" id="Layer_1" xmlns="http://www.w3.org/2000/svg" xmlns:xlink="http://www.w3.org/1999/xlink" x="0px" y="0px" 	 viewBox="0 0 2000 2000" style="enable-background:new 0 0 2000 2000;" xml:space="preserve"> <g> 	<path fill="#2f557f"  d="M1898.41,485.24H91.88V1699.3c0,48.56,29.14,77.7,58.28,77.7h1680.27c48.56,0,77.7-29.14,77.7-77.7V485.24H1898.41z 		 M1315.66,689.2c0-48.56,29.14-77.7,67.99-77.7h320.51c29.14,0,67.99,29.14,67.99,77.7v359.36c0,48.56-29.14,77.7-67.99,77.7 		h-320.51c-29.14,0-67.99-29.14-67.99-77.7V689.2z M800.89,1582.75c0,38.85-19.43,67.99-67.99,67.99H286.13 		c-48.56,0-67.99-29.14-67.99-77.7V689.2c0-48.56,29.14-77.7,77.7-77.7h427.35c48.56,0,77.7,29.14,77.7,67.99 		C800.89,679.49,800.89,1582.75,800.89,1582.75z M868.88,689.2c0-48.56,29.14-77.7,67.99-77.7h252.53 		c29.14,0,67.99,29.14,67.99,77.7v359.36c0,48.56-29.14,77.7-67.99,77.7H927.16c-29.14,0-67.99-29.14-67.99-77.7V689.2H868.88z 		 M1577.9,1582.75H868.88v-126.26h709.02V1582.75z M1772.15,1388.5H868.88v-126.26h903.27V1388.5z"/> </g> <g> 	<path fill="#2f557f"  d="M1383.65,1067.99V747.47h67.99V1000h262.24v67.99H1383.65z M1645.88,737.76h67.99v194.25h-67.99V737.76z M1509.91,805.75 		h67.99v126.26h-67.99V805.75z"/> </g> <g> 	<path fill="#2f557f"  d="M927.16,737.76h262.24v67.99H927.16V737.76z M1121.41,1000H927.16v-67.99h194.25V1000z"/> </g> <g> 	<path fill="#2f557f"  d="M538.65,737.76c67.99,0,126.26,67.99,126.26,126.26H538.65V737.76z M480.38,1067.99c-67.99,0-126.26-77.7-126.26-126.26 		c0-67.99,67.99-126.26,126.26-126.26v126.26h126.26C606.64,1000,538.65,1067.99,480.38,1067.99z M674.63,1320.51H344.4v-67.99 		h320.51v67.99H674.63z M674.63,1514.76H344.4v-67.99h320.51v67.99H674.63z"/> </g> <g> 	<path fill="#2f557f"  d="M150.15,223h1680.27c48.56,0,77.7,38.85,77.7,77.7v116.55H91.88V300.7C91.88,261.85,121.02,223,150.15,223z"/> </g> </svg> 