<?xml version="1.0" encoding="utf-8"?> <!-- Generator: Adobe Illustrator 23.0.3, SVG Export Plug-In . SVG Version: 6.00 Build 0)  --> <svg version="1.1" id="Layer_1" xmlns="http://www.w3.org/2000/svg" xmlns:xlink="http://www.w3.org/1999/xlink" x="0px" y="0px" 	 viewBox="0 0 2000 2000" style="enable-background:new 0 0 2000 2000;" xml:space="preserve"> <g> 	<path fill="#4f703c"  d="M1553.43,795.58v209.4h-528.5v129.63h69.8v69.8h-69.8v129.63h259.26l-249.29,199.43H207.25 		c-59.83-9.97-99.72-59.83-119.66-119.66V316.94c9.97-59.83,59.83-99.72,119.66-119.66h1366.11 		c59.83,9.97,99.72,59.83,119.66,119.66v548.44L1553.43,795.58z M1024.93,935.18h199.43V805.55h-199.43V935.18z M1224.36,735.75 		V606.12h-199.43v129.63H1224.36z M486.46,1334.05h468.67v-129.63H486.46V1334.05z M486.46,1134.62h468.67v-129.63H486.46V1134.62z 		 M486.46,935.18h468.67V805.55H486.46V935.18z M486.46,735.75h468.67V606.12H486.46V735.75z M287.03,1334.05h129.63v-129.63H287.03 		V1334.05z M426.63,1134.62v-129.63h-139.6v129.63H426.63z M287.03,935.18h129.63V805.55H287.03V935.18z M426.63,735.75V606.12 		h-139.6v129.63H426.63z M1483.62,406.69H287.03v129.63h1196.6V406.69z M1284.19,606.12v129.63h199.43V606.12H1284.19z 		 M1483.62,805.55h-199.43v129.63h199.43V805.55z"/> </g> <g> 	<path fill="#4f703c"  d="M1423.79,1663.11h468.67v-199.43h-468.67v-139.6l-289.18,239.32v19.94l289.18,219.38V1663.11z"/> </g> <g> 	<path fill="#4f703c"  d="M1623.23,1264.25h-468.67v-199.43h468.67v-139.6l289.18,239.32v19.94l-289.18,219.38V1264.25z"/> </g> </svg> 