<?xml version="1.0" encoding="utf-8"?>
<!-- Generator: Adobe Illustrator 24.2.1, SVG Export Plug-In . SVG Version: 6.00 Build 0)  -->
<svg version="1.1" id="Layer_1" xmlns="http://www.w3.org/2000/svg" xmlns:xlink="http://www.w3.org/1999/xlink" x="0px" y="0px"
	 viewBox="0 0 2000 2000" style="enable-background:new 0 0 2000 2000;" xml:space="preserve">
<style type="text/css">
	.st0{display:none;}
	.st1{display:inline;}
	.st2{fill:#4f703c;}
</style>
<g class="st0">
	<path class="st1" d="M470.2,427.1l224.1,750.4l29.2-19.5c0,0-39-146.2,165.7-243.6s302.1,29.2,477.5,29.2s311.8-107.2,389.8-204.7
		c68.2-107.2,146.2-389.8,146.2-389.8l-48.7-9.8c0,0-107.2,146.2-194.9,146.2c-243.6,0-584.7-360.6-847.8-360.6
		C411.8,95.8,470.2,427.1,470.2,427.1z"/>
</g>
<g class="st0">
	<path class="st1" d="M333.8,349.2c0,0,389.8,1237.6,419,1364.3c29.2,146.2-194.9,214.4-224.1,68.2
		c-39-155.9-380.1-1218.1-419-1364.3C60.9,251.7,294.8,193.3,333.8,349.2L333.8,349.2z"/>
</g>
<path class="st2" d="M1702.1,323.5H297.6c-81.2,0-147,65.8-147,147v1208.5h1698.5V470.5C1849.1,389.4,1783.3,323.6,1702.1,323.5z
	 M281.3,470.5c0-9,7.3-16.3,16.3-16.3c0,0,0,0,0,0h1404.5c9,0,16.3,7.3,16.3,16.3c0,0,0,0,0,0v81.7H281.3L281.3,470.5z M281.3,682.8
	h196v865.6h-196V682.8z M607.9,1548.4V682.8h1110.5v865.6H607.9z M1018.3,1007.7l-172.6,107.9l172.6,107.9l-69.2,110.7L687.8,1171
	v-110.7l261.3-163.3L1018.3,1007.7z M1361.3,896.9l261.3,163.3V1171l-261.3,163.3l-69.2-110.7l172.8-107.9L1292,1007.7L1361.3,896.9
	z M1135.2,895.1h133.6l-93.6,441h-133.6L1135.2,895.1z"/>
</svg>
