<?xml version="1.0" encoding="utf-8"?> <!-- Generator: Adobe Illustrator 23.0.3, SVG Export Plug-In . SVG Version: 6.00 Build 0)  --> <svg version="1.1" id="Layer_1" xmlns="http://www.w3.org/2000/svg" xmlns:xlink="http://www.w3.org/1999/xlink" x="0px" y="0px" 	 viewBox="0 0 2000 2000" style="enable-background:new 0 0 2000 2000;" xml:space="preserve"> <g> 	<path fill="#f5a700"  d="M1457.76,873.38V746.77c0-68.18-68.18-126.62-126.62-126.62s-136.35,58.44-136.35,116.88v126.62H1000V610.41h-68.18 		c-48.7,0-126.62-68.18-126.62-126.62c0-77.92,68.18-126.62,126.62-126.62H1000V94.21h584.38c68.18,0,126.62,68.18,126.62,126.62 		v652.56H1457.76z"/> </g> <g> 	<path fill="#f5a700"  d="M873.38,678.59v194.79H678.59c0-126.62-107.14-194.79-194.79-194.79c-107.14,0-194.79,68.18-194.79,194.79H94.21V220.83 		c0-68.18,68.18-126.62,126.62-126.62h652.56v194.79c-126.62,0-194.79,68.18-194.79,194.79S737.03,678.59,873.38,678.59z"/> </g> <g> 	<path fill="#f5a700"  d="M220.83,1710.99c-68.18,0-126.62-68.18-126.62-126.62V1000h262.97v-68.18c0-68.18,68.18-126.62,126.62-126.62 		s126.62,68.18,126.62,126.62V1000h262.97v194.79H746.77c-77.92,0-126.62,68.18-126.62,126.62c0,58.44,48.7,126.62,126.62,126.62 		h126.62v262.97H220.83z"/> </g> <g> 	<path fill="#f5a700"  d="M1779.17,1905.79h-584.38v-262.97h-68.18c-68.18,0-126.62-68.18-126.62-126.62c0-58.44,68.18-126.62,126.62-126.62h68.18 		v-194.79h194.79v-68.18c0-48.7,48.7-126.62,126.62-126.62c77.92,0,126.62,68.18,126.62,126.62v68.18h262.97v584.38 		C1905.79,1827.87,1847.35,1905.79,1779.17,1905.79z"/> </g> </svg> 