<?xml version="1.0" encoding="utf-8"?> <!-- Generator: Adobe Illustrator 23.0.3, SVG Export Plug-In . SVG Version: 6.00 Build 0)  --> <svg version="1.1" id="Layer_1" xmlns="http://www.w3.org/2000/svg" xmlns:xlink="http://www.w3.org/1999/xlink" x="0px" y="0px" 	 viewBox="0 0 2000 2000" style="enable-background:new 0 0 2000 2000;" xml:space="preserve"> <g> 	<path fill="#4f703c"  d="M1705.21,221.84H285.06c-126.45,0-194.54,77.82-194.54,194.54v1167.25c0,126.45,68.09,194.54,194.54,194.54h1429.88 		c126.45,0,194.54-68.09,194.54-194.54V416.38C1899.75,289.93,1821.94,221.84,1705.21,221.84z M674.14,1194.54H285.06 		c-29.18,0-68.09-38.91-68.09-68.09s38.91-68.09,68.09-68.09h389.08c29.18,0,68.09,38.91,68.09,68.09S693.6,1194.54,674.14,1194.54z 		 M674.14,1000H285.06c-19.45,0-68.09-38.91-68.09-68.09s38.91-68.09,68.09-68.09h389.08c29.18,0,68.09,38.91,68.09,68.09 		S693.6,1000,674.14,1000z M674.14,805.46H285.06c-29.18,0-68.09-38.91-68.09-68.09s38.91-68.09,68.09-68.09h389.08 		c29.18,0,68.09,38.91,68.09,68.09S693.6,805.46,674.14,805.46z M1705.21,1583.62H927.05h-68.09V737.37c0-68.09,68.09-68.09,68.09,0 		v778.16h778.16C1773.3,1515.53,1763.57,1583.62,1705.21,1583.62z M995.14,1457.17v-320.99h320.99v320.99H995.14z M1705.21,1457.17 		h-320.99V805.46h320.99V1457.17z M1773.3,542.83H216.97V416.38H1773.3V542.83z"/> </g> </svg> 